<svg width="800" height="1060" viewBox="0 0 800 1060" xmlns="http://www.w3.org/2000/svg">
<defs>
<style>
.mono{font-family:'DM Mono','Courier New',monospace;}
.header-g{animation:slidedown .6s cubic-bezier(.16,1,.3,1) both;}
@keyframes slidedown{from{transform:translateY(-10px);opacity:0;}to{transform:translateY(0);opacity:1;}}
.pulse{animation:pulse 1.4s ease-in-out infinite;}
@keyframes pulse{0%,100%{opacity:1;}50%{opacity:.2;}}
.cursor{animation:cblink .75s steps(1) 0.6s 6 forwards;}
@keyframes cblink{0%,100%{opacity:1;}50%{opacity:0;}}
.type-mask-1{animation:slide1 2.0s steps(38,end) 0.7s forwards;}
@keyframes slide1{from{x:16px;}to{x:820px;}}
.type-mask-2{animation:slide2 1.8s steps(34,end) 2.8s forwards;}
@keyframes slide2{from{x:16px;}to{x:820px;}}
.type-mask-3{animation:slide3 1.4s steps(26,end) 4.7s forwards;}
@keyframes slide3{from{x:16px;}to{x:820px;}}
.f1{opacity:0;animation:fadein .5s ease 0.2s forwards;}
.f2{opacity:0;animation:fadein .5s ease 6.2s forwards;}
.f3{opacity:0;animation:fadein .5s ease 6.5s forwards;}
.f4{opacity:0;animation:fadein .5s ease 6.8s forwards;}
.f5{opacity:0;animation:fadein .5s ease 7.1s forwards;}
@keyframes fadein{to{opacity:1;}}
</style>
</defs>

<rect width="800" height="1060" fill="#f8fafd"/>

<!-- HEADER -->
<g class="header-g">
  <rect x="0" y="22" width="126" height="16" fill="#dbeafe" rx="1"/>
  <rect x="0" y="22" width="5" height="16" fill="#2563eb"/>
  <text x="13" y="33.5" class="mono" font-size="9" fill="#2563eb" letter-spacing="2">CS · MATH · STAT</text>
  <rect x="596" y="20" width="184" height="20" fill="#eff6ff" rx="2" stroke="#bfdbfe" stroke-width="1"/>
  <circle cx="610" cy="30" r="3.5" fill="#2563eb" class="pulse"/>
  <text x="621" y="34.5" class="mono" font-size="9.5" fill="#1d4ed8" letter-spacing="0.3">open to opportunities</text>
  <text x="0" y="78" class="mono" font-size="40" fill="#0a0e1a" letter-spacing="-1" font-weight="500">Lucas Liu</text>
  <text x="0" y="102" class="mono" font-size="12" fill="#64748b" letter-spacing="0.3">University of Toronto  ·  third year</text>
</g>

<!-- divider + ABOUT -->
<g class="f1">
  <line x1="0" y1="120" x2="800" y2="120" stroke="#dbeafe" stroke-width="1"/>
  <rect x="0" y="132" width="760" height="94" fill="#ffffff" stroke="#dbeafe" stroke-width="1"/>
  <rect x="12" y="125" width="62" height="13" fill="#f8fafd"/>
  <text x="14" y="135.5" class="mono" font-size="8.5" fill="#93c5fd" letter-spacing="1.5">ABOUT.TXT</text>
  <text x="16" y="154" class="mono" font-size="12" fill="#334155">I build </text>
  <text x="70" y="154" class="mono" font-size="12" fill="#2563eb" font-weight="500">ML systems</text>
  <text x="166" y="154" class="mono" font-size="12" fill="#334155"> with a background in applied ML and backend</text>
  <rect x="16" y="138" width="750" height="20" fill="#ffffff" class="type-mask-1"/>
  <text x="16" y="174" class="mono" font-size="12" fill="#334155">development — increasingly drawn to how models are trained, evaluated,</text>
  <rect x="16" y="158" width="750" height="20" fill="#ffffff" class="type-mask-2"/>
  <text x="16" y="194" class="mono" font-size="12" fill="#334155">and improved. Currently exploring </text>
  <text x="316" y="194" class="mono" font-size="12" fill="#2563eb" font-weight="500">LLM post-training, evaluation, and model optimization.</text>
  <rect x="16" y="178" width="750" height="20" fill="#ffffff" class="type-mask-3"/>
  <rect x="16" y="196" width="2" height="13" fill="#2563eb" class="cursor"/>
</g>

<!-- SELECTED WORK -->
<g class="f2">
  <text x="0" y="254" class="mono" font-size="9" fill="#93c5fd" letter-spacing="2.5">SELECTED WORK</text>
  <line x1="138" y1="250" x2="800" y2="250" stroke="#dbeafe" stroke-width="1"/>

  <!-- card 1 -->
  <rect x="0" y="263" width="374" height="116" fill="#f8fafd" stroke="#dbeafe" stroke-width="1"/>
  <text x="14" y="280" class="mono" font-size="8.5" fill="#2563eb" letter-spacing="1.5">● COMPLETED</text>
  <text x="14" y="298" class="mono" font-size="12" fill="#0f172a" font-weight="500">Student Response Classifier</text>
  <text x="14" y="314" class="mono" font-size="10" fill="#64748b">LLM usage classifier · TF-IDF pipeline</text>
  <text x="14" y="329" class="mono" font-size="10" fill="#64748b">8k trials · 1000+ → 33 features</text>
  <rect x="14" y="341" width="52" height="14" fill="#dbeafe" rx="1"/><text x="17" y="351.5" class="mono" font-size="8" fill="#1d4ed8" letter-spacing="0.5">XGBOOST</text>
  <rect x="72" y="341" width="54" height="14" fill="#dbeafe" rx="1"/><text x="75" y="351.5" class="mono" font-size="8" fill="#1d4ed8" letter-spacing="0.5">RAND FOREST</text>
  <rect x="132" y="341" width="24" height="14" fill="#dbeafe" rx="1"/><text x="135" y="351.5" class="mono" font-size="8" fill="#1d4ed8" letter-spacing="0.5">MLP</text>
  <rect x="162" y="341" width="34" height="14" fill="#dbeafe" rx="1"/><text x="165" y="351.5" class="mono" font-size="8" fill="#1d4ed8" letter-spacing="0.5">TF-IDF</text>

  <!-- card 2 -->
  <rect x="386" y="263" width="374" height="116" fill="#f8fafd" stroke="#dbeafe" stroke-width="1"/>
  <text x="400" y="280" class="mono" font-size="8.5" fill="#2563eb" letter-spacing="1.5">● COMPLETED</text>
  <text x="400" y="298" class="mono" font-size="12" fill="#0f172a" font-weight="500">Alzheimer's Progression Forecasting</text>
  <text x="400" y="314" class="mono" font-size="10" fill="#64748b">Music · EEG · cognition · PCA + ridge</text>
  <text x="400" y="329" class="mono" font-size="10" fill="#64748b">70+ audio · 495 EEG → 15 key features</text>
  <rect x="400" y="341" width="32" height="14" fill="#dbeafe" rx="1"/><text x="403" y="351.5" class="mono" font-size="8" fill="#1d4ed8" letter-spacing="0.5">RIDGE</text>
  <rect x="438" y="341" width="22" height="14" fill="#dbeafe" rx="1"/><text x="441" y="351.5" class="mono" font-size="8" fill="#1d4ed8" letter-spacing="0.5">PLS</text>
  <rect x="466" y="341" width="24" height="14" fill="#dbeafe" rx="1"/><text x="469" y="351.5" class="mono" font-size="8" fill="#1d4ed8" letter-spacing="0.5">EEG</text>
  <rect x="496" y="341" width="64" height="14" fill="#dbeafe" rx="1"/><text x="499" y="351.5" class="mono" font-size="8" fill="#1d4ed8" letter-spacing="0.5">SCIKIT-LEARN</text>

  <!-- card 3 -->
  <rect x="0" y="385" width="374" height="116" fill="#f8fafd" stroke="#dbeafe" stroke-width="1"/>
  <text x="14" y="402" class="mono" font-size="8.5" fill="#16a34a" letter-spacing="1.5">● LIVE</text>
  <text x="14" y="420" class="mono" font-size="12" fill="#0f172a" font-weight="500">Bird Diversity Analysis Platform</text>
  <text x="14" y="436" class="mono" font-size="10" fill="#64748b">REST APIs for geospatial ecological data</text>
  <text x="14" y="451" class="mono" font-size="10" fill="#64748b">· eBird integration · Django QuerySets</text>
  <rect x="14" y="463" width="46" height="14" fill="#dbeafe" rx="1"/><text x="17" y="473.5" class="mono" font-size="8" fill="#1d4ed8" letter-spacing="0.5">DJANGO</text>
  <rect x="66" y="463" width="50" height="14" fill="#dbeafe" rx="1"/><text x="69" y="473.5" class="mono" font-size="8" fill="#1d4ed8" letter-spacing="0.5">REST API</text>
  <rect x="122" y="463" width="58" height="14" fill="#dbeafe" rx="1"/><text x="125" y="473.5" class="mono" font-size="8" fill="#1d4ed8" letter-spacing="0.5">GEOSPATIAL</text>

  <!-- card 4 -->
  <rect x="386" y="385" width="374" height="116" fill="#f8fafd" stroke="#dbeafe" stroke-width="1"/>
  <text x="400" y="402" class="mono" font-size="8.5" fill="#d97706" letter-spacing="1.5">○ WIP</text>
  <text x="400" y="420" class="mono" font-size="12" fill="#0f172a" font-weight="500">ML Pipeline System</text>
  <text x="400" y="436" class="mono" font-size="10" fill="#64748b">End-to-end: ingestion → preprocess</text>
  <text x="400" y="451" class="mono" font-size="10" fill="#64748b">→ train → eval → inference</text>
  <rect x="400" y="463" width="46" height="14" fill="#dbeafe" rx="1"/><text x="403" y="473.5" class="mono" font-size="8" fill="#1d4ed8" letter-spacing="0.5">PYTORCH</text>
  <rect x="452" y="463" width="46" height="14" fill="#dbeafe" rx="1"/><text x="455" y="473.5" class="mono" font-size="8" fill="#1d4ed8" letter-spacing="0.5">PIPELINE</text>
  <rect x="504" y="463" width="30" height="14" fill="#dbeafe" rx="1"/><text x="507" y="473.5" class="mono" font-size="8" fill="#1d4ed8" letter-spacing="0.5">EVAL</text>

  <!-- card 5 -->
  <rect x="0" y="507" width="374" height="116" fill="#f8fafd" stroke="#dbeafe" stroke-width="1"/>
  <text x="14" y="524" class="mono" font-size="8.5" fill="#d97706" letter-spacing="1.5">○ WIP</text>
  <text x="14" y="542" class="mono" font-size="12" fill="#0f172a" font-weight="500">ML Inference Scheduling System</text>
  <text x="14" y="558" class="mono" font-size="10" fill="#64748b">Request scheduling · batching ·</text>
  <text x="14" y="573" class="mono" font-size="10" fill="#64748b">latency vs throughput trade-offs</text>
  <rect x="14" y="585" width="46" height="14" fill="#dbeafe" rx="1"/><text x="17" y="595.5" class="mono" font-size="8" fill="#1d4ed8" letter-spacing="0.5">SERVING</text>
  <rect x="66" y="585" width="50" height="14" fill="#dbeafe" rx="1"/><text x="69" y="595.5" class="mono" font-size="8" fill="#1d4ed8" letter-spacing="0.5">BATCHING</text>
  <rect x="122" y="585" width="46" height="14" fill="#dbeafe" rx="1"/><text x="125" y="595.5" class="mono" font-size="8" fill="#1d4ed8" letter-spacing="0.5">SCALING</text>

  <!-- card 6 -->
  <rect x="386" y="507" width="374" height="116" fill="#f8fafd" stroke="#dbeafe" stroke-width="1"/>
  <text x="400" y="524" class="mono" font-size="8.5" fill="#7c3aed" letter-spacing="1.5">◌ PLANNED</text>
  <text x="400" y="542" class="mono" font-size="12" fill="#0f172a" font-weight="500">LLM Post-training Project</text>
  <text x="400" y="558" class="mono" font-size="10" fill="#64748b">Prompt eval · output quality analysis</text>
  <text x="400" y="573" class="mono" font-size="10" fill="#64748b">· fine-tuning experiments</text>
  <rect x="400" y="585" width="24" height="14" fill="#dbeafe" rx="1"/><text x="403" y="595.5" class="mono" font-size="8" fill="#1d4ed8" letter-spacing="0.5">LLM</text>
  <rect x="430" y="585" width="30" height="14" fill="#dbeafe" rx="1"/><text x="433" y="595.5" class="mono" font-size="8" fill="#1d4ed8" letter-spacing="0.5">RLHF</text>
  <rect x="466" y="585" width="50" height="14" fill="#dbeafe" rx="1"/><text x="469" y="595.5" class="mono" font-size="8" fill="#1d4ed8" letter-spacing="0.5">FINETUNE</text>
</g>

<!-- TECH STACK label only — logos handled by badges in README -->
<g class="f3">
  <text x="0" y="646" class="mono" font-size="9" fill="#93c5fd" letter-spacing="2.5">TECH STACK</text>
  <line x1="100" y1="642" x2="800" y2="642" stroke="#dbeafe" stroke-width="1"/>
</g>

<!-- CURRENT FOCUS -->
<g class="f4">
  <text x="0" y="720" class="mono" font-size="9" fill="#93c5fd" letter-spacing="2.5">CURRENT FOCUS</text>
  <line x1="132" y1="716" x2="800" y2="716" stroke="#dbeafe" stroke-width="1"/>
  <rect x="0" y="730" width="760" height="34" fill="#f8fafd" stroke="#dbeafe" stroke-width="1"/>
  <text x="14" y="751" class="mono" font-size="10.5" fill="#93c5fd">01</text>
  <text x="42" y="751" class="mono" font-size="10.5" fill="#334155">ML systems — training, inference, pipeline design</text>
  <rect x="0" y="765" width="760" height="34" fill="#f8fafd" stroke="#dbeafe" stroke-width="1"/>
  <text x="14" y="786" class="mono" font-size="10.5" fill="#93c5fd">02</text>
  <text x="42" y="786" class="mono" font-size="10.5" fill="#334155">LLM post-training · evaluation · optimization</text>
  <rect x="0" y="800" width="760" height="34" fill="#f8fafd" stroke="#dbeafe" stroke-width="1"/>
  <text x="14" y="821" class="mono" font-size="10.5" fill="#93c5fd">03</text>
  <text x="42" y="821" class="mono" font-size="10.5" fill="#334155">Reliable and scalable ML workflows</text>
</g>

<!-- FOOTER -->
<g class="f5">
  <line x1="0" y1="868" x2="800" y2="868" stroke="#dbeafe" stroke-width="1"/>
  <rect x="0" y="882" width="100" height="24" fill="none" stroke="#bfdbfe" stroke-width="1" rx="1"/>
  <text x="50" y="898" class="mono" font-size="9.5" fill="#1d4ed8" text-anchor="middle" letter-spacing="1">↗ LINKEDIN</text>
  <text x="760" y="898" class="mono" font-size="9.5" fill="#93c5fd" text-anchor="end" letter-spacing="0.5">LL333111 · github.com</text>
</g>

</svg>
